Jump_normalized_Motion_pl08
version=1
nRows=14
nColumns=43
inDegrees=yes
endheader
time		pelvis_tilt		pelvis_list		pelvis_rotation		pelvis_tx		pelvis_ty		pelvis_tz		hip_flexion_r		hip_adduction_r		hip_rotation_r		knee_angle_r		ankle_angle_r		subtalar_angle_r		mtp_angle_r		hip_flexion_l		hip_adduction_l		hip_rotation_l		knee_angle_l		ankle_angle_l		subtalar_angle_l		mtp_angle_l		lumbar_extension		lumbar_bending		lumbar_rotation		neck_flexion		neck_lateral_bending		neck_rotation		arm_flex_r		arm_add_r		arm_rot_r		elbow_flex_r		pro_sup_r		wrist_flex_r		wrist_dev_r		hand_finger_flex_r		arm_flex_l		arm_add_l		arm_rot_l		elbow_flex_l		pro_sup_l		wrist_flex_l		wrist_dev_l		hand_finger_flex_l		
1.715000		-2.375049		-27.366858		87.530633		-0.004454		1.633378		1.583123		90.165963		-6.732476		13.537699		-134.219732		25.909997		3.764322		4.988412		83.633562		-8.290628		4.269774		-136.243985		31.341767		8.590415		11.422402		-39.889023		-4.382349		-0.771208		36.235707		7.177911		-1.792576		93.940327		-16.504165		23.720757		72.653844		89.140066		-6.016770		1.196294		-20.670272		98.363604		-11.236880		22.272137		62.563732		92.203224		-14.299581		2.355854		2.794782		
1.716818		-2.285050		-27.405206		87.544063		-0.004518		1.633325		1.580848		89.970831		-6.759933		13.478294		-134.266666		25.728524		3.866102		5.014899		83.374406		-8.372542		4.294722		-136.256376		31.296861		8.518622		11.478531		-39.623654		-4.341267		-0.722550		35.990091		7.239221		-1.743356		94.567626		-16.279714		23.904397		72.504492		88.994537		-6.018772		1.034220		-20.801015		98.921720		-11.102593		22.393132		62.457622		92.252958		-14.208717		2.262666		2.755323		
1.718636		-2.121813		-27.284862		87.603992		-0.004617		1.633575		1.578424		89.548881		-6.802641		13.340612		-134.290297		25.585457		3.940452		5.147517		82.948969		-8.454454		4.383638		-136.279668		31.233503		8.434917		11.713064		-39.545787		-4.227031		-0.671102		35.750535		7.247057		-1.620330		95.277329		-16.059047		24.231246		72.219857		88.384216		-6.041683		0.473483		-21.304122		99.480874		-10.995892		22.483488		62.325320		92.322448		-14.056172		1.902397		2.595777		
1.720455		-1.950940		-27.153870		87.672576		-0.004717		1.633863		1.575949		89.104769		-6.856096		13.189751		-134.303324		25.441733		4.005362		5.297514		82.509041		-8.537429		4.477254		-136.300380		31.167770		8.363991		11.978817		-39.479020		-4.105385		-0.622256		35.517759		7.247419		-1.500401		95.977039		-15.841968		24.560274		71.930438		87.701843		-6.056735		-0.121048		-21.865678		100.022246		-10.883139		22.554296		62.195503		92.392224		-13.902689		1.523212		2.416138		
1.722273		-1.888986		-27.276577		87.683431		-0.004757		1.633724		1.573589		89.002449		-6.914339		13.140251		-134.326485		25.226909		4.091324		5.308620		82.324943		-8.623601		4.469832		-136.293730		31.128118		8.352844		12.017105		-39.108046		-4.093189		-0.586232		35.294419		7.321614		-1.522612		96.498437		-15.628844		24.638063		71.870175		87.639941		-6.010579		-0.099371		-21.932319		100.508401		-10.702578		22.621605		62.120296		92.427295		-13.857424		1.568020		2.392378		
1.724091		-1.803617		-27.337050		87.700221		-0.004816		1.633643		1.571158		88.834157		-6.956350		13.088607		-134.361274		24.976497		4.189400		5.323845		82.079360		-8.711819		4.493199		-136.298065		31.066784		8.334839		12.059864		-38.795969		-4.063656		-0.535850		35.011296		7.401733		-1.509754		97.028548		-15.412043		24.718102		71.760826		87.530109		-5.961820		-0.136642		-22.011070		100.995696		-10.522371		22.699658		62.014277		92.482732		-13.816579		1.571047		2.361911		
1.725909		-1.704637		-27.357739		87.726837		-0.004890		1.633618		1.568672		88.615734		-6.992664		13.023804		-134.396659		24.707824		4.289269		5.345153		81.791226		-8.800601		4.529305		-136.308814		30.992851		8.319182		12.109402		-38.523280		-4.019537		-0.483166		34.701239		7.483486		-1.480457		97.564240		-15.189990		24.802722		71.613279		87.374808		-5.908789		-0.221505		-22.102752		101.479594		-10.338972		22.774368		61.882856		92.549799		-13.782114		1.539956		2.325137		
1.727727		-1.593955		-27.343983		87.764218		-0.004975		1.633650		1.566124		88.349842		-7.027702		12.944948		-134.428323		24.426677		4.386774		5.373278		81.464207		-8.889505		4.575455		-136.322314		30.908459		8.308913		12.166125		-38.285256		-3.961451		-0.430647		34.373120		7.564094		-1.439343		98.101697		-14.962456		24.891272		71.431820		87.173486		-5.851884		-0.353197		-22.207354		101.956432		-10.151560		22.840576		61.729712		92.625128		-13.755073		1.474617		2.282911		
1.729545		-1.473213		-27.305367		87.814107		-0.005053		1.633755		1.563466		88.036609		-7.077442		12.857685		-134.441393		24.150441		4.467306		5.410652		81.101363		-8.977348		4.633517		-136.321166		30.817371		8.313057		12.230154		-38.073058		-3.890366		-0.381027		34.047315		7.631178		-1.395496		98.621133		-14.729651		24.977508		71.231278		86.920368		-5.795165		-0.538496		-22.323977		102.408768		-9.958742		22.881423		61.571506		92.697242		-13.739762		1.366603		2.239955		
1.731364		-1.347270		-27.251548		87.873034		-0.005143		1.633881		1.560749		87.698391		-7.123018		12.764521		-134.452560		23.866732		4.538217		5.456188		80.718204		-9.060354		4.698833		-136.319909		30.721964		8.328931		12.300407		-37.873186		-3.807296		-0.330568		33.711568		7.686278		-1.353075		99.129554		-14.497148		25.063523		71.016828		86.632393		-5.740791		-0.752537		-22.450336		102.838936		-9.765027		22.909466		61.407772		92.756491		-13.727992		1.234203		2.203827		
1.733182		-1.218233		-27.191416		87.934543		-0.005246		1.634016		1.557982		87.347173		-7.167791		12.670464		-134.461371		23.578638		4.602103		5.507800		80.323097		-9.144918		4.768762		-136.315077		30.624355		8.353366		12.374366		-37.677070		-3.716805		-0.278227		33.371651		7.730612		-1.312255		99.623895		-14.263578		25.147751		70.794975		86.325449		-5.689803		-0.981154		-22.582144		103.251173		-9.571749		22.926183		61.243537		92.799448		-13.719118		1.086202		2.176125		
1.735000		-1.086927		-27.129206		87.995336		-0.005366		1.634153		1.555167		86.988171		-7.213543		12.578197		-134.467309		23.287387		4.659625		5.565001		79.919362		-9.234766		4.842347		-136.304349		30.525476		8.385556		12.451048		-37.480366		-3.620603		-0.223214		33.030307		7.763660		-1.273311		100.100890		-14.028064		25.229120		70.568508		86.006258		-5.643157		-1.218097		-22.717625		103.645837		-9.379699		22.931138		61.081542		92.822400		-13.713101		0.925748		2.158675		
1.736818		-1.046314		-27.245941		88.029670		-0.005527		1.634142		1.552373		86.807439		-7.266989		12.552959		-134.452102		23.210563		4.678271		5.572819		79.675825		-9.282529		4.802500		-136.250366		30.477382		8.406234		12.460913		-37.127898		-3.585068		-0.186988		32.909541		7.776475		-1.269820		100.445152		-13.877974		25.177865		70.634804		85.955081		-5.647520		-1.291340		-22.741664		103.935029		-9.229865		22.913527		61.178839		92.821205		-13.713117		0.866856		2.156978		
1.738636		-0.828480		-27.026302		88.128386		-0.005665		1.634596		1.549386		86.220622		-7.278576		12.358762		-134.423200		22.914432		4.667067		5.763435		79.100144		-9.401220		4.957094		-136.235832		30.392992		8.488393		12.652705		-37.114054		-3.397695		-0.106076		32.575922		7.729737		-1.162116		101.001364		-13.631432		25.377132		70.243273		85.269654		-5.529592		-1.875105		-23.040546		104.337066		-9.086110		22.929195		60.942540		92.741142		-13.705055		0.419203		2.218477		
